<?xml version="1.0" encoding="UTF-8"?>
<svg width="491px" height="141px" viewBox="0 0 491 141" version="1.1" xmlns="http://www.w3.org/2000/svg" xmlns:xlink="http://www.w3.org/1999/xlink">
    <!-- Generator: Sketch 47.1 (45422) - http://www.bohemiancoding.com/sketch -->
    <title>yarilabs_logo_vectorial</title>
    <desc>Created with Sketch.</desc>
    <defs>
        <polygon id="path-1" points="0 706.968934 999.623006 706.968934 999.623006 0.0923593619 0 0.0923593619"></polygon>
    </defs>
    <g id="Page-1" stroke="none" stroke-width="1" fill="none" fill-rule="evenodd">
        <g id="yarilabs_logo_vectorial" transform="translate(-253.000000, -284.000000)">
            <polygon id="Fill-1" fill="#050707" points="417.914526 310.499496 424.278086 310.499496 443.136188 339.101511 462.075735 310.499496 468.360369 310.499496 445.964903 344.837028 445.964903 363.933585 440.386398 363.933585 440.386398 344.837028"></polygon>
            <g id="Group-35" transform="translate(0.000000, 0.747271)">
                <path d="M477.019899,345.033921 C477.019899,353.755164 482.204618,359.728296 490.377582,359.728296 C494.69916,359.728296 498.469941,358.549454 503.341478,355.328631 L503.341478,331.362217 C498.785642,330.654408 495.090428,330.339547 490.769689,330.339547 C481.732746,330.339547 477.019899,336.389085 477.019899,345.033921 Z M508.685726,327.667842 L508.685726,363.185894 L503.341478,363.185894 L503.341478,359.962552 C498.785642,362.949958 494.777246,364.363056 489.748699,364.363056 C478.90403,364.363056 471.675651,356.586398 471.675651,344.87775 C471.754576,333.404198 478.669773,325.704786 490.061881,325.704786 C496.898992,325.704786 501.378421,326.254744 508.685726,327.667842 Z" id="Fill-2" fill="#050707"></path>
                <path d="M547.517716,331.281276 C542.330479,331.281276 538.00974,331.439127 532.665491,332.06801 L532.665491,363.186398 L527.322082,363.186398 L527.322082,327.905122 C533.923258,326.723762 540.75953,326.017632 547.517716,326.017632 L547.517716,331.281276 Z" id="Fill-4" fill="#050707"></path>
                <mask id="mask-2" fill="white">
                    <use xlink:href="#path-1"></use>
                </mask>
                <g id="Clip-7"></g>
                <path d="M563.007557,363.186398 L568.351805,363.186398 L568.351805,326.881612 L563.007557,326.881612 L563.007557,363.186398 Z M561.752309,313.759866 C561.752309,311.481108 563.480269,309.831234 565.680101,309.831234 C567.880772,309.831234 569.609572,311.481108 569.609572,313.759866 C569.609572,315.959698 567.880772,317.609572 565.680101,317.609572 C563.480269,317.609572 561.752309,315.959698 561.752309,313.759866 L561.752309,313.759866 Z" id="Fill-6" fill="#050707" mask="url(#mask-2)"></path>
                <polygon id="Fill-8" fill="#050707" mask="url(#mask-2)" points="588.008396 363.186398 593.350126 363.186398 593.350126 307.397145 588.008396 307.397145"></polygon>
                <path d="M613.79026,345.033921 C613.79026,353.755164 618.974979,359.728296 627.148783,359.728296 C631.470361,359.728296 635.241142,358.549454 640.112678,355.328631 L640.112678,331.362217 C635.556843,330.654408 631.861629,330.339547 627.54089,330.339547 C618.503946,330.339547 613.79026,336.389085 613.79026,345.033921 M645.456927,327.667842 L645.456927,363.185894 L640.112678,363.185894 L640.112678,359.962552 C635.556843,362.949958 631.548447,364.363056 626.519899,364.363056 C615.675231,364.363056 608.446012,356.586398 608.446012,344.87775 C608.524937,333.404198 615.440974,325.704786 626.833081,325.704786 C633.670193,325.704786 638.148783,326.254744 645.456927,327.667842" id="Fill-9" fill="#050707" mask="url(#mask-2)"></path>
                <path d="M668.257179,331.989337 L668.257179,358.629135 C674.541814,359.728212 677.449454,359.728212 680.828967,359.728212 C689.629135,359.728212 694.581276,353.75508 694.581276,344.797061 C694.581276,336.23115 689.865071,330.339463 680.593871,330.339463 C676.820571,330.339463 672.89194,330.654324 668.257179,331.989337 L668.257179,331.989337 Z M668.178254,327.354576 C672.577918,326.096809 676.741646,325.704702 681.065743,325.704702 C693.007809,325.704702 699.844081,333.404954 699.844081,344.797061 C699.844081,356.820571 692.457851,364.205122 681.771033,364.205122 C676.115281,364.205122 672.499832,364.286566 662.834005,362.478841 L662.834005,307.396558 L668.178254,307.396558 L668.178254,327.354576 Z" id="Fill-10" fill="#050707" mask="url(#mask-2)"></path>
                <path d="M714.002351,356.270529 C719.189589,358.549286 724.847019,359.886818 729.246683,359.886818 C734.747103,359.886818 738.75466,357.686146 738.75466,353.597145 C738.75466,348.962385 733.410411,348.097565 726.260957,346.604702 C718.402015,344.954828 714.315533,342.520739 714.315533,336.546767 C714.315533,329.712175 719.738707,325.781024 728.696725,325.781024 C733.489337,325.781024 738.910831,326.962385 742.684131,328.296558 L741.268514,332.539211 C736.86801,331.126113 731.997313,330.181528 728.302099,330.181528 C722.723594,330.181528 719.581696,332.304954 719.581696,336.31251 C719.581696,340.084131 722.881444,340.947271 729.246683,342.439295 C737.889001,344.327624 743.784047,345.978338 743.784047,353.128631 C743.784047,360.591268 737.654744,364.362888 728.930982,364.362888 C723.902435,364.362888 717.852057,362.94979 712.744584,360.749958 L714.002351,356.270529 Z" id="Fill-11" fill="#050707" mask="url(#mask-2)"></path>
                <polygon id="Fill-12" fill="#050707" mask="url(#mask-2)" points="439.306465 404.434089 441.805206 404.434089 441.805206 389.150294 439.306465 389.150294"></polygon>
                <path d="M456.286566,404.434509 L453.819731,404.434509 L453.819731,397.325357 C453.819731,396.433669 453.64005,395.767842 453.280688,395.328715 C452.921327,394.889589 452.351217,394.670445 451.57204,394.670445 C450.532578,394.670445 449.772712,394.97691 449.292443,395.59068 C448.812175,396.20361 448.571201,397.231318 448.571201,398.674643 L448.571201,404.434509 L446.114442,404.434509 L446.114442,392.871956 L448.038035,392.871956 L448.383123,394.38749 L448.508228,394.38749 C448.856675,393.837531 449.351217,393.411839 449.992695,393.11293 C450.634173,392.812343 451.3445,392.662888 452.125357,392.662888 C454.899496,392.662888 456.286566,394.074307 456.286566,396.896306 L456.286566,404.434509 Z" id="Fill-13" fill="#050707" mask="url(#mask-2)"></path>
                <path d="M470.412678,404.434509 L467.945844,404.434509 L467.945844,397.325357 C467.945844,396.433669 467.766163,395.767842 467.406801,395.328715 C467.047439,394.889589 466.47733,394.670445 465.698153,394.670445 C464.65869,394.670445 463.898825,394.97691 463.418556,395.59068 C462.938287,396.20361 462.697313,397.231318 462.697313,398.674643 L462.697313,404.434509 L460.240554,404.434509 L460.240554,392.871956 L462.164148,392.871956 L462.509236,394.38749 L462.634341,394.38749 C462.982788,393.837531 463.47733,393.411839 464.118808,393.11293 C464.760285,392.812343 465.470613,392.662888 466.251469,392.662888 C469.025609,392.662888 470.412678,394.074307 470.412678,396.896306 L470.412678,404.434509 Z" id="Fill-14" fill="#050707" mask="url(#mask-2)"></path>
                <path d="M476.205626,398.632578 C476.205626,401.301763 477.192191,402.636776 479.163644,402.636776 C481.115785,402.636776 482.091436,401.301763 482.091436,398.632578 C482.091436,395.9911 481.109068,394.670361 479.143493,394.670361 C478.112427,394.670361 477.364316,395.012091 476.90084,395.69471 C476.436524,396.37733 476.205626,397.356339 476.205626,398.632578 M484.621243,398.632578 C484.621243,400.520907 484.136776,401.995298 483.168682,403.054912 C482.199748,404.113686 480.850462,404.643493 479.122502,404.643493 C478.042737,404.643493 477.087238,404.4 476.257683,403.911335 C475.428128,403.424349 474.790008,402.723258 474.344165,401.810579 C473.898321,400.897061 473.674979,399.838287 473.674979,398.632578 C473.674979,396.757683 474.156927,395.293367 475.118304,394.242149 C476.080521,393.189253 477.435684,392.663644 479.185474,392.663644 C480.858018,392.663644 482.182116,393.201008 483.157767,394.277414 C484.133417,395.3555 484.621243,396.806381 484.621243,398.632578" id="Fill-15" fill="#050707" mask="url(#mask-2)"></path>
                <path d="M490.613854,404.434509 L486.223426,392.871956 L488.815365,392.871956 L491.16801,399.594039 C491.572712,400.723342 491.816205,401.63602 491.899328,402.332914 L491.983291,402.332914 C492.046264,401.830814 492.289757,400.918976 492.715449,399.594039 L495.067254,392.871956 L497.681024,392.871956 L493.269605,404.434509 L490.613854,404.434509 Z" id="Fill-16" fill="#050707" mask="url(#mask-2)"></path>
                <path d="M503.547775,402.761797 C504.439463,402.761797 505.156507,402.512427 505.697229,402.013686 C506.236272,401.516625 506.506633,400.817212 506.506633,399.917968 L506.506633,398.91461 L505.022166,398.976742 C503.865155,399.019563 503.023846,399.211839 502.497397,399.557767 C501.970949,399.902855 501.708144,400.430982 501.708144,401.14131 C501.708144,401.657683 501.860957,402.055668 502.168262,402.338623 C502.474727,402.620739 502.934845,402.761797 503.547775,402.761797 L503.547775,402.761797 Z M507.206885,404.434341 L506.715701,402.823929 L506.632578,402.823929 C506.075063,403.52838 505.51419,404.006969 504.949118,404.262217 C504.384047,404.516625 503.659446,404.643409 502.774475,404.643409 C501.638455,404.643409 500.751805,404.336944 500.113686,403.724013 C499.475567,403.110243 499.157347,402.242905 499.157347,401.120319 C499.157347,399.928883 499.599832,399.029639 500.485642,398.423426 C501.369773,397.816373 502.71906,397.486398 504.530982,397.430143 L506.527624,397.36717 L506.527624,396.750882 C506.527624,396.012007 506.3555,395.45953 506.010411,395.093451 C505.664484,394.728212 505.130479,394.544332 504.405038,394.544332 C503.812259,394.544332 503.245508,394.631654 502.701427,394.805458 C502.158186,394.980101 501.635097,395.18665 501.132997,395.423426 L500.338707,393.666919 C500.965911,393.338623 501.651889,393.089253 502.398321,392.918808 C503.143913,392.748363 503.847523,392.66356 504.509992,392.66356 C505.980185,392.66356 507.091016,392.983459 507.839127,393.624097 C508.588917,394.266415 508.963392,395.273132 508.963392,396.645928 L508.963392,404.434341 L507.206885,404.434341 Z" id="Fill-17" fill="#050707" mask="url(#mask-2)"></path>
                <path d="M517.235264,402.656843 C517.834761,402.656843 518.434257,402.563644 519.033753,402.374727 L519.033753,404.225273 C518.760873,404.3445 518.410747,404.443577 517.983375,404.523342 C517.554324,404.603107 517.11016,404.643409 516.650042,404.643409 C514.321746,404.643409 513.158018,403.416709 513.158018,400.963308 L513.158018,394.73241 L511.579513,394.73241 L511.579513,393.645928 L513.273048,392.746683 L514.10932,390.3 L515.625693,390.3 L515.625693,392.871788 L518.918724,392.871788 L518.918724,394.73241 L515.625693,394.73241 L515.625693,400.922166 C515.625693,401.514945 515.773468,401.951553 516.069018,402.233669 C516.366247,402.515785 516.754156,402.656843 517.235264,402.656843" id="Fill-18" fill="#050707" mask="url(#mask-2)"></path>
                <path d="M521.879093,404.434929 L524.335852,404.434929 L524.335852,392.872376 L521.879093,392.872376 L521.879093,404.434929 Z M521.733837,389.809404 C521.733837,389.369437 521.853065,389.031906 522.093199,388.79513 C522.334173,388.557515 522.677582,388.439127 523.123426,388.439127 C523.555835,388.439127 523.891688,388.557515 524.132662,388.79513 C524.372796,389.031906 524.493703,389.369437 524.493703,389.809404 C524.493703,390.22754 524.372796,390.555835 524.132662,390.796809 C523.891688,391.036944 523.555835,391.157851 523.123426,391.157851 C522.677582,391.157851 522.334173,391.036944 522.093199,390.796809 C521.853065,390.555835 521.733837,390.22754 521.733837,389.809404 L521.733837,389.809404 Z" id="Fill-19" fill="#050707" mask="url(#mask-2)"></path>
                <path d="M530.223258,398.632578 C530.223258,401.301763 531.209824,402.636776 533.181276,402.636776 C535.133417,402.636776 536.109068,401.301763 536.109068,398.632578 C536.109068,395.9911 535.1267,394.670361 533.161125,394.670361 C532.130059,394.670361 531.381948,395.012091 530.918472,395.69471 C530.454156,396.37733 530.223258,397.356339 530.223258,398.632578 M538.638875,398.632578 C538.638875,400.520907 538.154408,401.995298 537.186314,403.054912 C536.21738,404.113686 534.868094,404.643493 533.140134,404.643493 C532.060369,404.643493 531.10487,404.4 530.275315,403.911335 C529.44576,403.424349 528.807641,402.723258 528.361797,401.810579 C527.915953,400.897061 527.692611,399.838287 527.692611,398.632578 C527.692611,396.757683 528.174559,395.293367 529.135936,394.242149 C530.098153,393.189253 531.453317,392.663644 533.203107,392.663644 C534.875651,392.663644 536.199748,393.201008 537.175399,394.277414 C538.15105,395.3555 538.638875,396.806381 538.638875,398.632578" id="Fill-20" fill="#050707" mask="url(#mask-2)"></path>
                <path d="M552.16927,404.434509 L549.702435,404.434509 L549.702435,397.325357 C549.702435,396.433669 549.522754,395.767842 549.163392,395.328715 C548.80403,394.889589 548.233921,394.670445 547.454744,394.670445 C546.415281,394.670445 545.655416,394.97691 545.175147,395.59068 C544.694878,396.20361 544.453904,397.231318 544.453904,398.674643 L544.453904,404.434509 L541.997145,404.434509 L541.997145,392.871956 L543.920739,392.871956 L544.265827,394.38749 L544.390932,394.38749 C544.739379,393.837531 545.233921,393.411839 545.875399,393.11293 C546.516877,392.812343 547.227204,392.662888 548.00806,392.662888 C550.7822,392.662888 552.16927,394.074307 552.16927,396.896306 L552.16927,404.434509 Z" id="Fill-21" fill="#050707" mask="url(#mask-2)"></path>
                <path d="M555.757347,403.12754 C555.757347,402.619563 555.889169,402.229135 556.154492,401.956255 C556.418976,401.685055 556.802687,401.549034 557.304786,401.549034 C557.812762,401.549034 558.199832,401.690092 558.465155,401.972208 C558.729639,402.255164 558.861461,402.639715 558.861461,403.12754 C558.861461,403.622922 558.72796,404.015029 558.460118,404.303862 C558.190596,404.592695 557.806045,404.737951 557.304786,404.737951 C556.802687,404.737951 556.418976,404.594374 556.154492,404.3089 C555.889169,404.023426 555.757347,403.629639 555.757347,403.12754" id="Fill-22" fill="#050707" mask="url(#mask-2)"></path>
                <path d="M578.698825,396.729471 C578.698825,393.071201 576.987657,391.241646 573.565323,391.241646 L571.401595,391.241646 L571.401595,402.333165 L573.179093,402.333165 C576.859194,402.333165 578.698825,400.464987 578.698825,396.729471 M581.332746,396.645508 C581.332746,399.168598 580.632494,401.098069 579.23199,402.432242 C577.830647,403.767254 575.812175,404.434761 573.179093,404.434761 L568.902855,404.434761 L568.902855,389.150966 L573.628296,389.150966 C576.059866,389.150966 577.952393,389.805877 579.305038,391.114861 C580.656843,392.426364 581.332746,394.269353 581.332746,396.645508" id="Fill-23" fill="#050707" mask="url(#mask-2)"></path>
                <path d="M589.488581,394.523762 C588.707725,394.523762 588.0822,394.771453 587.612007,395.265995 C587.141814,395.761377 586.860537,396.48262 586.770697,397.430563 L592.019228,397.430563 C592.004114,396.475063 591.774895,395.752141 591.328212,395.260957 C590.882368,394.769773 590.269437,394.523762 589.488581,394.523762 M589.937783,404.643829 C588.140134,404.643829 586.733753,404.119899 585.720319,403.070361 C584.706045,402.021662 584.198069,400.576658 584.198069,398.737028 C584.198069,396.848699 584.669102,395.363392 585.610327,394.283627 C586.550714,393.203023 587.843745,392.66314 589.488581,392.66314 C591.015029,392.66314 592.220739,393.126616 593.106549,394.052729 C593.99068,394.980521 594.434005,396.255919 594.434005,397.879765 L594.434005,399.207221 L586.728715,399.207221 C586.76314,400.329807 587.066247,401.192107 587.638035,401.794962 C588.209824,402.397817 589.015029,402.699244 590.052813,402.699244 C590.735432,402.699244 591.371872,402.634593 591.960453,402.506129 C592.549874,402.376826 593.182116,402.16272 593.858858,401.862972 L593.858858,403.859614 C593.258522,404.145088 592.653149,404.347439 592.039379,404.465827 C591.426448,404.584215 590.726196,404.643829 589.937783,404.643829" id="Fill-24" fill="#050707" mask="url(#mask-2)"></path>
                <polygon id="Fill-25" fill="#050707" mask="url(#mask-2)" points="597.759866 404.434929 600.216625 404.434929 600.216625 388.167926 597.759866 388.167926"></polygon>
                <path d="M604.264484,404.434929 L606.721243,404.434929 L606.721243,392.872376 L604.264484,392.872376 L604.264484,404.434929 Z M604.119228,389.809404 C604.119228,389.369437 604.238455,389.031906 604.478589,388.79513 C604.719563,388.557515 605.062972,388.439127 605.508816,388.439127 C605.941226,388.439127 606.277078,388.557515 606.518052,388.79513 C606.758186,389.031906 606.879093,389.369437 606.879093,389.809404 C606.879093,390.22754 606.758186,390.555835 606.518052,390.796809 C606.277078,391.036944 605.941226,391.157851 605.508816,391.157851 C605.062972,391.157851 604.719563,391.036944 604.478589,390.796809 C604.238455,390.555835 604.119228,390.22754 604.119228,389.809404 L604.119228,389.809404 Z" id="Fill-26" fill="#050707" mask="url(#mask-2)"></path>
                <path d="M613.404114,404.434509 L609.013686,392.871956 L611.605626,392.871956 L613.95827,399.594039 C614.362972,400.723342 614.606465,401.63602 614.689589,402.332914 L614.773552,402.332914 C614.836524,401.830814 615.080017,400.918976 615.505709,399.594039 L617.857515,392.871956 L620.471285,392.871956 L616.059866,404.434509 L613.404114,404.434509 Z" id="Fill-27" fill="#050707" mask="url(#mask-2)"></path>
                <path d="M627.362972,394.523762 C626.582116,394.523762 625.956591,394.771453 625.486398,395.265995 C625.016205,395.761377 624.734929,396.48262 624.645088,397.430563 L629.893619,397.430563 C629.878505,396.475063 629.649286,395.752141 629.202603,395.260957 C628.756759,394.769773 628.143829,394.523762 627.362972,394.523762 M627.812175,404.643829 C626.014526,404.643829 624.608144,404.119899 623.59471,403.070361 C622.580437,402.021662 622.07246,400.576658 622.07246,398.737028 C622.07246,396.848699 622.543493,395.363392 623.484719,394.283627 C624.425105,393.203023 625.718136,392.66314 627.362972,392.66314 C628.889421,392.66314 630.09513,393.126616 630.98094,394.052729 C631.865071,394.980521 632.308396,396.255919 632.308396,397.879765 L632.308396,399.207221 L624.603107,399.207221 C624.637531,400.329807 624.940638,401.192107 625.512427,401.794962 C626.084215,402.397817 626.889421,402.699244 627.927204,402.699244 C628.609824,402.699244 629.246264,402.634593 629.834845,402.506129 C630.424265,402.376826 631.056507,402.16272 631.733249,401.862972 L631.733249,403.859614 C631.132914,404.145088 630.52754,404.347439 629.91377,404.465827 C629.30084,404.584215 628.600588,404.643829 627.812175,404.643829" id="Fill-28" fill="#050707" mask="url(#mask-2)"></path>
                <path d="M641.498908,392.663308 C641.993451,392.663308 642.400672,392.697733 642.721411,392.767422 L642.481276,395.057095 C642.13283,394.973132 641.770109,394.93115 641.393955,394.93115 C640.411587,394.93115 639.615617,395.251889 639.005206,395.893367 C638.395634,396.534005 638.090008,397.367758 638.090008,398.391268 L638.090008,404.434929 L635.634089,404.434929 L635.634089,392.871537 L637.557683,392.871537 L637.88094,394.910999 L638.006885,394.910999 C638.390596,394.219983 638.891016,393.673384 639.507305,393.269521 C640.123594,392.864819 640.787741,392.663308 641.498908,392.663308" id="Fill-29" fill="#050707" mask="url(#mask-2)"></path>
                <path d="M650.000168,394.523762 C649.219312,394.523762 648.593787,394.771453 648.123594,395.265995 C647.653401,395.761377 647.372124,396.48262 647.282284,397.430563 L652.530814,397.430563 C652.515701,396.475063 652.286482,395.752141 651.839798,395.260957 C651.393955,394.769773 650.781024,394.523762 650.000168,394.523762 M650.44937,404.643829 C648.651721,404.643829 647.24534,404.119899 646.231906,403.070361 C645.217632,402.021662 644.709656,400.576658 644.709656,398.737028 C644.709656,396.848699 645.180688,395.363392 646.121914,394.283627 C647.062301,393.203023 648.355332,392.66314 650.000168,392.66314 C651.526616,392.66314 652.732326,393.126616 653.618136,394.052729 C654.502267,394.980521 654.945592,396.255919 654.945592,397.879765 L654.945592,399.207221 L647.240302,399.207221 C647.274727,400.329807 647.577834,401.192107 648.149622,401.794962 C648.721411,402.397817 649.526616,402.699244 650.5644,402.699244 C651.247019,402.699244 651.883459,402.634593 652.47204,402.506129 C653.061461,402.376826 653.693703,402.16272 654.370445,401.862972 L654.370445,403.859614 C653.770109,404.145088 653.164736,404.347439 652.550966,404.465827 C651.938035,404.584215 651.237783,404.643829 650.44937,404.643829" id="Fill-30" fill="#050707" mask="url(#mask-2)"></path>
                <path d="M662.829975,402.656843 C663.84005,402.656843 664.575567,402.373048 665.035684,401.804618 C665.495802,401.237867 665.732578,400.315113 665.746851,399.039715 L665.746851,398.694626 C665.746851,397.238707 665.509236,396.203442 665.035684,395.590512 C664.562133,394.977582 663.819899,394.670277 662.809824,394.670277 C661.944165,394.670277 661.279177,395.020403 660.812343,395.720655 C660.345508,396.420907 660.112091,397.420067 660.112091,398.716457 C660.112091,399.998573 660.337951,400.975903 660.791352,401.648447 C661.243913,402.32183 661.924013,402.656843 662.829975,402.656843 M662.171704,404.643409 C660.72838,404.643409 659.602435,404.121159 658.79471,403.074979 C657.985306,402.030479 657.581444,400.562804 657.581444,398.674475 C657.581444,396.778589 657.991184,395.302519 658.810663,394.246264 C659.628463,393.190848 660.763644,392.66356 662.213686,392.66356 C663.732578,392.66356 664.889589,393.224433 665.683879,394.34618 L665.809824,394.34618 C665.690596,393.516625 665.631822,392.861713 665.631822,392.380605 L665.631822,388.167338 L668.098657,388.167338 L668.098657,404.434341 L666.175063,404.434341 L665.746851,402.918808 L665.631822,402.918808 C664.843409,404.069102 663.690596,404.643409 662.171704,404.643409" id="Fill-31" fill="#050707" mask="url(#mask-2)"></path>
                <path d="M671.78136,403.12754 C671.78136,402.619563 671.913182,402.229135 672.178505,401.956255 C672.442989,401.685055 672.8267,401.549034 673.328799,401.549034 C673.836776,401.549034 674.223846,401.690092 674.489169,401.972208 C674.753652,402.255164 674.885474,402.639715 674.885474,403.12754 C674.885474,403.622922 674.751973,404.015029 674.484131,404.303862 C674.21461,404.592695 673.830059,404.737951 673.328799,404.737951 C672.8267,404.737951 672.442989,404.594374 672.178505,404.3089 C671.913182,404.023426 671.78136,403.629639 671.78136,403.12754" id="Fill-32" fill="#050707" mask="url(#mask-2)"></path>
                <path d="M346.149874,284.58262 L366.051637,321.135936 C366.095298,321.214861 366.134761,321.297145 366.168346,321.381108 C377.984467,350.628799 295.753568,405.508732 267.714106,423.167003 C265.99958,424.246767 264.09194,422.106549 265.36398,420.529723 C285.176742,395.975567 341.623426,322.852141 342.792191,285.352561 C342.848447,283.540638 345.282536,282.98984 346.149874,284.58262" id="Fill-33" fill="#C3362F" mask="url(#mask-2)"></path>
                <path d="M255.541898,303.278757 L287.219479,309.962217 C288.135516,310.155332 288.802183,310.921075 288.92225,311.850546 C290.011251,320.293031 298.181696,340.973971 301.905458,350.092359 C302.424349,351.365239 300.946599,352.516373 299.841646,351.699412 C287.996977,342.957179 253.305122,316.302267 253.902939,304.456759 C253.944081,303.654072 254.755164,303.11335 255.541898,303.278757" id="Fill-34" fill="#C3362F" mask="url(#mask-2)"></path>
            </g>
        </g>
    </g>
</svg>